<?xml version="1.0" encoding="UTF-8"?>
<svg version="1.1" xmlns="http://www.w3.org/2000/svg" width="384" height="384">
<path d="M0 0 C126.72 0 253.44 0 384 0 C384 126.72 384 253.44 384 384 C257.28 384 130.56 384 0 384 C0 257.28 0 130.56 0 0 Z " fill="#23236C" transform="translate(0,0)"/>
<path d="M0 0 C8.58 0 17.16 0 26 0 C26.00410889 2.70429199 26.00821777 5.40858398 26.01245117 8.19482422 C26.0296913 17.15558831 26.07426422 26.11606881 26.13209057 35.07665825 C26.16630028 40.50656472 26.19146122 45.93619162 26.19555664 51.36621094 C26.19985245 56.61197126 26.22842173 61.85710156 26.27343178 67.10266495 C26.2863658 69.09836271 26.29072907 71.09413602 26.28615379 73.08987045 C26.0572431 89.63466 26.0572431 89.63466 34.375 103.4375 C35.24125 103.953125 36.1075 104.46875 37 105 C38.4540625 105.86625 38.4540625 105.86625 39.9375 106.75 C48.43716151 110.10171838 58.57457244 108.62721575 66.78515625 105.203125 C71.47306682 102.65660568 73.42936293 98.92194275 75 94 C75.30576177 90.93531547 75.31112475 87.8816121 75.31884766 84.8034668 C75.32889328 83.88590103 75.3389389 82.96833527 75.34928894 82.02296448 C75.38011198 78.99838878 75.39715374 75.97390157 75.4140625 72.94921875 C75.43277484 70.84885395 75.4523483 68.74849667 75.4727478 66.64814758 C75.52406793 61.12609282 75.5636944 55.60401369 75.60089111 50.08184814 C75.64093141 44.44447806 75.69202367 38.80720936 75.7421875 33.16992188 C75.8389455 22.11334539 75.92232917 11.05672706 76 0 C84.91 0 93.82 0 103 0 C103.04546155 10.65863448 103.08203613 21.31720295 103.10362434 31.97591305 C103.11399357 36.9269316 103.12802491 41.87787951 103.15087891 46.82885742 C103.17285516 51.62051129 103.18461998 56.41209786 103.18975449 61.20379829 C103.19340633 63.01792012 103.20053504 64.83203891 103.21146011 66.64613152 C103.26326608 75.61782919 103.13177932 84.47546085 102.10498047 93.39672852 C102.0262224 94.08289969 101.94746433 94.76907087 101.86631966 95.47603512 C100.45555135 106.39081155 95.77600101 115.25693989 87.328125 122.328125 C76.31063355 130.24001483 63.7412343 131.35309992 50.5625 131.3125 C49.52029297 131.32861328 48.47808594 131.34472656 47.40429688 131.36132812 C36.3602371 131.36817503 26.21679413 129.26534882 17 123 C16.31164062 122.54238281 15.62328125 122.08476562 14.9140625 121.61328125 C6.71690237 115.37904261 2.48515743 105.9890208 0.921875 96.02709961 C-0.3742278 86.49120037 -0.24994015 76.98965119 -0.1953125 67.3828125 C-0.19157353 65.42984158 -0.18873075 63.47686875 -0.18673706 61.52389526 C-0.17917012 56.43095547 -0.15958282 51.33813322 -0.1373291 46.24523926 C-0.11671957 41.02939442 -0.10770332 35.81353024 -0.09765625 30.59765625 C-0.07632907 20.39837805 -0.04120512 10.19921727 0 0 Z " fill="#FBFBFC" transform="translate(140,114)"/>
</svg>
