<?xml version="1.0" encoding="UTF-8"?>
<svg version="1.1" xmlns="http://www.w3.org/2000/svg" width="72" height="72">
<path d="M0 0 C23.76 0 47.52 0 72 0 C72 23.76 72 47.52 72 72 C48.24 72 24.48 72 0 72 C0 48.24 0 24.48 0 0 Z " fill="#24246C" transform="translate(0,0)"/>
<path d="M0 0 C1.65 0 3.3 0 5 0 C5.06058594 1.27617187 5.12117188 2.55234375 5.18359375 3.8671875 C5.26799568 5.53647016 5.35264386 7.20574037 5.4375 8.875 C5.47681641 9.71675781 5.51613281 10.55851562 5.55664062 11.42578125 C5.59853516 12.23144531 5.64042969 13.03710938 5.68359375 13.8671875 C5.72025146 14.61081543 5.75690918 15.35444336 5.79467773 16.12060547 C5.89955865 18.08864312 5.89955865 18.08864312 7 20 C9.31 20 11.62 20 14 20 C14.33 13.73 14.66 7.46 15 1 C16.32 1 17.64 1 19 1 C19.11638036 4.24969769 19.18730581 7.4988583 19.25 10.75 C19.28351562 11.67039062 19.31703125 12.59078125 19.3515625 13.5390625 C19.44974347 20.31354944 19.44974347 20.31354944 17.29296875 23.60546875 C14.66319309 25.20483827 13.12848084 25.56722416 10.0625 25.5625 C9.22847656 25.58441406 8.39445312 25.60632813 7.53515625 25.62890625 C3.66151249 24.6679561 2.30511022 23.25331158 0 20 C-0.59509361 16.5378053 -0.47325956 13.18711192 -0.3125 9.6875 C-0.28994141 8.75615234 -0.26738281 7.82480469 -0.24414062 6.86523438 C-0.18542078 4.5751604 -0.10336858 2.28842125 0 0 Z " fill="#F3F3F7" transform="translate(26,21)"/>
</svg>
