<?xml version="1.0" encoding="UTF-8"?>
<svg version="1.1" xmlns="http://www.w3.org/2000/svg" width="152" height="152">
<path d="M0 0 C50.16 0 100.32 0 152 0 C152 50.16 152 100.32 152 152 C101.84 152 51.68 152 0 152 C0 101.84 0 51.68 0 0 Z " fill="#23236C" transform="translate(0,0)"/>
<path d="M0 0 C3.63 0 7.26 0 11 0 C11.0093457 1.13018555 11.01869141 2.26037109 11.02832031 3.42480469 C11.06822392 7.62214421 11.13398326 11.81875104 11.20751953 16.015625 C11.2357271 17.83128439 11.25694274 19.64706652 11.27099609 21.46289062 C11.29242909 24.07485789 11.33907885 26.68534974 11.390625 29.296875 C11.39185364 30.10743347 11.39308228 30.91799194 11.39434814 31.75311279 C11.48885166 35.39782077 11.67159672 37.56425606 13.8972168 40.51733398 C16.362787 42.25580001 17.57870758 42.45891283 20.5625 42.3125 C21.32691406 42.28800781 22.09132813 42.26351562 22.87890625 42.23828125 C25.18626781 42.05365698 25.18626781 42.05365698 28 41 C30.76747031 37.34959149 30.34989547 32.89677278 30.4140625 28.515625 C30.43342865 27.70003113 30.4527948 26.88443726 30.4727478 26.04412842 C30.53239575 23.44619108 30.57886942 20.84820907 30.625 18.25 C30.66319342 16.48565806 30.70224595 14.72133449 30.7421875 12.95703125 C30.83808505 8.63817054 30.92217047 4.31922256 31 0 C34.3 0 37.6 0 41 0 C41.12422629 5.55004849 41.21463317 11.09927582 41.2746582 16.65039062 C41.29969777 18.53595083 41.33373999 20.42141498 41.37719727 22.30664062 C41.43831786 25.02758564 41.46631493 27.74724027 41.48828125 30.46875 C41.51408768 31.30241089 41.5398941 32.13607178 41.56648254 32.99499512 C41.56938285 39.14055706 39.9286446 43.25029556 36 48 C30.95517377 51.81438081 26.33731213 52.16984113 20.125 52.25 C18.33449219 52.28867188 18.33449219 52.28867188 16.5078125 52.328125 C11.12605885 51.82470929 7.99619879 50.01883967 4.25 46.1875 C0.1382055 40.36245779 -0.28664549 35.20717622 -0.1953125 28.3203125 C-0.19106766 27.10116653 -0.19106766 27.10116653 -0.18673706 25.85739136 C-0.17560619 23.27977325 -0.15051515 20.70251181 -0.125 18.125 C-0.11496101 16.36979671 -0.10583677 14.61458794 -0.09765625 12.859375 C-0.07569015 8.57278074 -0.04120978 4.2864507 0 0 Z " fill="#F7F7F9" transform="translate(55,45)"/>
</svg>
