<?xml version="1.0" encoding="UTF-8"?>
<svg version="1.1" xmlns="http://www.w3.org/2000/svg" width="144" height="144">
<path d="M0 0 C47.52 0 95.04 0 144 0 C144 47.52 144 95.04 144 144 C96.48 144 48.96 144 0 144 C0 96.48 0 48.96 0 0 Z " fill="#23236C" transform="translate(0,0)"/>
<path d="M0 0 C2.97 0 5.94 0 9 0 C9.0093457 1.03930664 9.01869141 2.07861328 9.02832031 3.14941406 C9.06824123 7.01133838 9.13400478 10.8724678 9.20751953 14.73388672 C9.23571718 16.40403011 9.25693779 18.07430665 9.27099609 19.74462891 C9.29244337 22.14815372 9.33909845 24.55007983 9.390625 26.953125 C9.39185364 27.69806213 9.39308228 28.44299927 9.39434814 29.21051025 C9.49302642 32.71565517 9.7204158 34.64334818 11.91308594 37.44042969 C15.438479 40.07498875 17.6067884 40.2635927 22 40 C25.20476624 38.79255056 25.20476624 38.79255056 27 36 C27.15676775 33.30344554 27.25836315 30.62870023 27.31640625 27.9296875 C27.33718735 27.13345978 27.35796844 26.33723206 27.37937927 25.51687622 C27.44484149 22.96967315 27.50374415 20.42236575 27.5625 17.875 C27.6056884 16.14972873 27.64930279 14.42446807 27.69335938 12.69921875 C27.80051945 8.46625315 27.90179623 4.23318247 28 0 C31.3 0 34.6 0 38 0 C38.0745169 4.99874665 38.12877437 9.99716533 38.16479492 14.99633789 C38.17982126 16.69463742 38.20024823 18.39289855 38.22631836 20.09106445 C38.26297449 22.54127518 38.27978789 24.99097 38.29296875 27.44140625 C38.30845261 28.19273331 38.32393646 28.94406036 38.33988953 29.71815491 C38.34181058 35.82414899 37.03207524 40.40735228 33.1875 45.3125 C27.25277297 49.890718 20.18385364 49.6179659 13 49 C7.83827891 47.80307917 4.45123867 44.95877377 1 41 C-0.66577625 37.66844749 -0.12007856 33.93463941 -0.09765625 30.2734375 C-0.0962413 29.41062164 -0.09482635 28.54780579 -0.09336853 27.65884399 C-0.08776188 24.8975277 -0.07520827 22.13629188 -0.0625 19.375 C-0.05748586 17.5052095 -0.0529228 15.63541774 -0.04882812 13.765625 C-0.03779029 9.17705223 -0.0205212 4.58853977 0 0 Z " fill="#FAFAFC" transform="translate(53,43)"/>
</svg>
