<?xml version="1.0" encoding="UTF-8"?>
<svg version="1.1" xmlns="http://www.w3.org/2000/svg" width="128" height="128">
<path d="M0 0 C42.24 0 84.48 0 128 0 C128 42.24 128 84.48 128 128 C85.76 128 43.52 128 0 128 C0 85.76 0 43.52 0 0 Z " fill="#23236C" transform="translate(0,0)"/>
<path d="M0 0 C2.64 0 5.28 0 8 0 C8.01458252 0.91813477 8.02916504 1.83626953 8.04418945 2.78222656 C8.10533515 6.19687909 8.17950217 9.61073672 8.26245117 13.02490234 C8.29565355 14.50103138 8.32370017 15.97728594 8.34643555 17.45361328 C8.38006951 19.57899332 8.43238519 21.70322804 8.48828125 23.828125 C8.51446533 25.1059082 8.54064941 26.38369141 8.56762695 27.70019531 C9.01836003 31.14012092 9.55655248 32.58707231 12 35 C14.16839991 35.59292122 14.16839991 35.59292122 16.5 35.4375 C17.2734375 35.43621094 18.046875 35.43492188 18.84375 35.43359375 C21.62698858 34.87392078 22.33069831 34.30429554 24 32 C24.3307063 29.49271968 24.4882718 27.21862613 24.51171875 24.70703125 C24.52966995 24.00100266 24.54762115 23.29497406 24.56611633 22.56755066 C24.62023178 20.31592759 24.65411722 18.06451657 24.6875 15.8125 C24.72067219 14.28447569 24.75516177 12.75647937 24.79101562 11.22851562 C24.87595825 7.48583011 24.94276248 3.74320759 25 0 C27.97 0 30.94 0 34 0 C34.07460234 4.42908378 34.12881371 8.8578269 34.16479492 13.28735352 C34.17980722 14.79165017 34.20022353 16.29590361 34.22631836 17.80004883 C34.26303816 19.97227696 34.27980161 22.14392251 34.29296875 24.31640625 C34.3086792 25.62037354 34.32438965 26.92434082 34.34057617 28.26782227 C33.94404399 32.61318968 33.02537956 35.15571881 31 39 C24.55659218 44.10103119 18.97522371 44.62842021 11 44 C5.62157154 42.14199744 2.53918244 39.07836487 0 34 C-0.08658569 31.44637396 -0.11562516 28.9204558 -0.09765625 26.3671875 C-0.0962413 25.61535187 -0.09482635 24.86351624 -0.09336853 24.08889771 C-0.08776465 21.6842249 -0.07521157 19.27964473 -0.0625 16.875 C-0.0574855 15.24609509 -0.0529225 13.61718873 -0.04882812 11.98828125 C-0.03779397 7.99215173 -0.02052679 3.99609158 0 0 Z " fill="#F8F8FA" transform="translate(47,38)"/>
</svg>
