<?xml version="1.0" encoding="UTF-8"?>
<svg version="1.1" xmlns="http://www.w3.org/2000/svg" width="192" height="192">
<path d="M0 0 C63.36 0 126.72 0 192 0 C192 63.36 192 126.72 192 192 C128.64 192 65.28 192 0 192 C0 128.64 0 65.28 0 0 Z " fill="#23236C" transform="translate(0,0)"/>
<path d="M0 0 C4.29 0 8.58 0 13 0 C13.01458252 1.36729248 13.02916504 2.73458496 13.04418945 4.14331055 C13.10221463 9.22202548 13.17944785 14.30029903 13.26245117 19.37866211 C13.29568055 21.57552927 13.32371866 23.7724814 13.34643555 25.96948242 C13.38001754 29.12976243 13.43233634 32.28926521 13.48828125 35.44921875 C13.49467117 36.42960617 13.5010611 37.40999359 13.50764465 38.42008972 C13.64197728 45.20893855 13.64197728 45.20893855 17 51 C20.39122637 53.26081758 21.87377606 53.35268603 25.875 53.4375 C26.90367188 53.47746094 27.93234375 53.51742187 28.9921875 53.55859375 C33.23149578 52.77129364 34.4159994 51.4565794 37 48 C37.75125913 44.34191655 37.72133382 40.73637419 37.70703125 37.01171875 C37.72215256 35.95338333 37.73727386 34.89504791 37.75285339 33.80464172 C37.79576159 30.43204494 37.80457181 27.06034266 37.8125 23.6875 C37.83564174 21.39776262 37.86100639 19.10804656 37.88867188 16.81835938 C37.95155574 11.21216039 37.98386658 5.60652059 38 0 C42.29 0 46.58 0 51 0 C51.07449282 6.67111811 51.12876426 13.3419908 51.16479492 20.01342773 C51.17982508 22.28007224 51.20025482 24.54668794 51.22631836 26.81323242 C51.26295588 30.08259213 51.2797846 33.35156527 51.29296875 36.62109375 C51.30845261 37.62458359 51.32393646 38.62807343 51.33988953 39.66197205 C51.34152444 46.59085608 50.76570266 53.51559967 46.31640625 59.12109375 C45.73761719 59.55550781 45.15882812 59.98992187 44.5625 60.4375 C43.69818359 61.11619141 43.69818359 61.11619141 42.81640625 61.80859375 C37.24670554 65.4618383 32.6622644 65.3338079 26.125 65.3125 C25.14402344 65.32861328 24.16304687 65.34472656 23.15234375 65.36132812 C16.20477763 65.36601609 11.8813131 64.33249155 6.375 59.875 C0.4371105 52.6870285 -0.57803668 45.73053559 -0.390625 36.62109375 C-0.38496521 35.56841812 -0.37930542 34.51574249 -0.37347412 33.4311676 C-0.35124884 30.09946426 -0.30107768 26.7688732 -0.25 23.4375 C-0.22991714 21.16603126 -0.21166951 18.8945455 -0.1953125 16.62304688 C-0.15142933 11.08160872 -0.08249774 5.54099234 0 0 Z " fill="#FBFBFC" transform="translate(70,57)"/>
</svg>
