<?xml version="1.0" encoding="UTF-8"?>
<svg version="1.1" xmlns="http://www.w3.org/2000/svg" width="96" height="96">
<path d="M0 0 C31.68 0 63.36 0 96 0 C96 31.68 96 63.36 96 96 C64.32 96 32.64 96 0 96 C0 64.32 0 32.64 0 0 Z " fill="#23236C" transform="translate(0,0)"/>
<path d="M0 0 C2.31 0 4.62 0 7 0 C7.11662261 4.04142215 7.1873935 8.08240865 7.25 12.125 C7.30027344 13.83816406 7.30027344 13.83816406 7.3515625 15.5859375 C7.47520205 26.21893882 7.47520205 26.21893882 3 31 C-0.46663827 33.31109218 -2.19843589 33.41539967 -6.3125 33.5625 C-7.97732422 33.65724609 -7.97732422 33.65724609 -9.67578125 33.75390625 C-13.73230176 32.83391981 -15.3657097 31.61150021 -17.87280273 28.35083008 C-20.18953063 23.51917037 -19.60721132 18.29916306 -19.375 13.0625 C-19.34792969 11.90169922 -19.32085937 10.74089844 -19.29296875 9.54492188 C-19.22259234 6.69467725 -19.12418624 3.84832281 -19 1 C-16.69 1 -14.38 1 -12 1 C-11.98018066 1.71655762 -11.96036133 2.43311523 -11.93994141 3.17138672 C-11.84490481 6.4063063 -11.73513981 9.64056094 -11.625 12.875 C-11.5940625 14.00292969 -11.563125 15.13085938 -11.53125 16.29296875 C-11.49257813 17.36933594 -11.45390625 18.44570313 -11.4140625 19.5546875 C-11.3826416 20.54968262 -11.3512207 21.54467773 -11.31884766 22.56982422 C-11.22752917 25.17854517 -11.22752917 25.17854517 -9 27 C-6 27.33333333 -6 27.33333333 -3 27 C-0.36008732 24.36008732 -0.69759203 23.02053704 -0.5859375 19.3359375 C-0.54726563 18.21445312 -0.50859375 17.09296875 -0.46875 15.9375 C-0.4378125 14.761875 -0.406875 13.58625 -0.375 12.375 C-0.33632813 11.19164062 -0.29765625 10.00828125 -0.2578125 8.7890625 C-0.16331155 5.85953309 -0.07775442 2.93001403 0 0 Z " fill="#EFEFF4" transform="translate(54,28)"/>
</svg>
