<?xml version="1.0" encoding="UTF-8"?>
<svg version="1.1" xmlns="http://www.w3.org/2000/svg" width="512" height="512">
<path d="M0 0 C168.96 0 337.92 0 512 0 C512 168.96 512 337.92 512 512 C343.04 512 174.08 512 0 512 C0 343.04 0 174.08 0 0 Z " fill="#23236C" transform="translate(0,0)"/>
<path d="M0 0 C11.22 0 22.44 0 34 0 C34.01458252 3.45114258 34.02916504 6.90228516 34.04418945 10.45800781 C34.09463591 21.88936466 34.16110096 33.32059763 34.23571491 44.75181961 C34.28054406 51.67925742 34.31998778 58.6066453 34.34643555 65.53417969 C34.37199778 72.22570174 34.41298819 78.91697026 34.46318626 85.60836029 C34.47980864 88.15504923 34.49135162 90.70177679 34.49761391 93.24851227 C34.50730521 96.82899647 34.5354255 100.40891465 34.56762695 103.98925781 C34.56619186 105.03080017 34.56475677 106.07234253 34.5632782 107.14544678 C34.70029271 117.99171352 36.47102906 128.74351052 44 137 C54.25868188 145.35437566 66.41108637 144.95662721 79 144 C86.15852914 142.7638824 91.14824471 140.03861864 95.6328125 134.27734375 C101.15783437 125.0742359 101.14831582 114.05033755 101.20532227 103.64868164 C101.21522186 102.52599884 101.22512146 101.40331604 101.23532104 100.24661255 C101.26680343 96.55114826 101.29164094 92.85567114 101.31640625 89.16015625 C101.33698723 86.59182916 101.357984 84.02350537 101.37937927 81.45518494 C101.42885558 75.39576776 101.47415129 69.33633267 101.51740164 63.27686828 C101.56690133 56.37475147 101.62177196 49.47268058 101.67708123 42.57060826 C101.79067339 28.38044727 101.89685252 14.19024067 102 0 C113.55 0 125.1 0 137 0 C137.0454569 13.96226066 137.08203357 27.92447095 137.10362434 41.88678932 C137.11399466 48.37230843 137.12802818 54.85777362 137.15087891 61.34326172 C137.17285101 67.61973972 137.18461916 73.89616636 137.18975449 80.1726799 C137.19340704 82.54925722 137.20053721 84.92583221 137.21146011 87.30238724 C137.26271498 98.93277123 137.15019408 110.49296914 136.15966797 122.08740234 C136.08824144 122.96215525 136.01681492 123.83690815 135.94322395 124.73816872 C134.63890304 138.15474729 129.27251461 151.16437416 119.5 160.625 C100.73692174 176.05162266 76.06877793 176.22786537 53 175 C37.76743047 173.44957057 23.40986823 167.55067571 13 156 C-2.11682221 136.79592566 -0.29555897 111.28692341 -0.1953125 88.18359375 C-0.19157436 85.62956351 -0.18873118 83.07553183 -0.18673706 80.52149963 C-0.17993373 74.53318385 -0.16424215 68.54495792 -0.14403808 62.55667788 C-0.12150634 55.72692001 -0.1106427 48.89715812 -0.10064721 42.0673722 C-0.07986948 28.04486595 -0.04326377 14.02245399 0 0 Z " fill="#FDFDFD" transform="translate(187,152)"/>
</svg>
